<svg width="201" height="50" viewBox="0 0 201 50" fill="none" xmlns="http://www.w3.org/2000/svg">
<g clip-path="url(#clip0_4063_6769)">
<path d="M43.0004 27.7899C40.9104 28.4999 40.2804 30.2099 39.7604 31.9299C39.7604 32.9199 39.0704 33.7599 37.7904 34.3299C37.1804 34.5999 36.5604 34.7399 35.9504 34.7399C35.1704 34.7399 34.4204 34.5199 33.7104 34.0899C32.6604 33.4499 32.1304 32.3999 32.1304 31.1999C31.5704 29.6999 30.6504 28.2199 29.1404 27.7899C27.4104 27.2999 26.2904 26.0799 25.5804 24.8999C25.5804 25.6799 25.5804 26.3199 25.5804 26.5799C25.5604 29.7599 25.5404 29.1299 25.6204 31.5099C25.6904 33.6899 26.4404 35.4999 27.9004 37.0399C29.9604 39.2199 32.9104 40.4699 36.0004 40.4699C37.1304 40.4699 38.2504 40.3099 39.3504 39.9799C43.4604 38.7699 46.3404 35.2899 46.3404 31.5199C46.3404 30.3699 46.3404 30.3099 46.3404 28.3499V27.5399C46.3404 27.1599 46.3404 26.2899 46.3404 25.2599C45.6304 26.3099 44.5404 27.2499 43.0204 27.7699L43.0004 27.7899Z" fill="#01A1B0"/>
<path d="M29.3003 26.8799C30.5803 27.2499 31.4903 28.2199 32.1203 29.3599C32.1203 27.8999 32.1103 18.3699 32.1103 18.3699C32.1103 15.3099 28.3003 14.6299 26.9703 14.6299C26.4303 14.6299 25.7003 14.7599 25.5703 15.8599V15.8799V23.1999C26.1403 24.5299 27.2503 26.2999 29.3003 26.8799Z" fill="#EF3E25"/>
<path d="M46.3207 15.8599C46.2007 14.7499 45.4707 14.6299 44.9207 14.6299C43.5907 14.6299 39.7807 15.3199 39.7807 18.3699C39.7807 18.3699 39.7607 25.2899 39.7607 25.8699C39.7607 27.1499 39.7607 28.5299 39.7607 29.8499C40.4007 28.5099 41.3607 27.2999 42.8307 26.8799C44.6207 26.3699 45.7007 24.9499 46.3207 23.7099V15.8599Z" fill="#EF3E25"/>
<path d="M152.8 15.8301C152.79 14.7401 152.55 14.2001 151.26 14.2101C149.83 14.2301 148.87 14.2301 147.12 14.5401C142.45 15.3901 138.53 18.8201 137.81 22.7101C137.57 23.9901 137.58 29.2201 137.58 31.4601C137.58 32.1601 137.58 32.7601 137.58 33.1701C137.56 34.1601 137.57 35.1601 137.58 36.1301C137.58 36.9601 137.58 37.7801 137.58 38.6101C137.58 39.0901 137.69 39.4401 137.94 39.7001C138.21 39.9701 138.61 40.1101 139.17 40.1101H139.24C139.82 40.1001 140.4 40.0901 140.98 40.0901C141.56 40.0901 142.12 40.0901 142.69 40.1101H142.77C143.34 40.1101 143.75 39.9801 144.01 39.7101C144.25 39.4601 144.36 39.1101 144.35 38.6301C144.32 37.6201 144.33 36.5901 144.33 35.5901C144.33 35.1701 144.33 34.7501 144.33 34.3401C144.33 33.9701 144.33 33.3901 144.33 32.6901C144.33 30.6901 144.31 25.8001 144.34 24.7701C144.38 23.2001 144.82 22.2001 145.79 21.4301C146.8 20.6301 148.31 20.0101 150.76 20.0901H150.96C152.34 20.0901 152.77 19.6901 152.79 18.3701C152.8 17.6001 152.8 16.7701 152.79 15.8201L152.8 15.8301Z" fill="#01A1B0"/>
<path d="M200.51 23.7802C200.43 21.5702 199.68 19.7302 198.2 18.1602C196.11 15.9502 193.11 14.6802 189.98 14.6802C188.84 14.6802 187.69 14.8502 186.58 15.1702C182.41 16.4002 179.49 19.9302 179.49 23.7602C179.49 24.9202 179.49 30.2302 179.49 32.2302V34.9802C179.49 36.1302 179.49 37.2802 179.49 38.4302C179.49 39.9102 179.91 40.1202 181.45 40.1302C181.81 40.1302 182.18 40.1302 182.54 40.1302H183.95C185.8 40.1302 186.13 39.9802 186.13 38.1902C186.13 37.2302 186.13 35.9402 186.13 34.5202C186.13 31.5502 186.13 25.8902 186.13 23.8702C186.13 22.5102 186.83 21.4802 188.13 20.9002C188.75 20.6302 189.38 20.4902 190 20.4902C190.79 20.4902 191.56 20.7102 192.28 21.1502C193.35 21.8002 193.86 22.7702 193.87 24.2002C193.91 27.2702 193.9 35.7002 193.87 38.6802C193.87 39.1802 193.97 39.5302 194.22 39.7702C194.46 40.0102 194.83 40.1302 195.33 40.1302C195.38 40.1302 195.43 40.1302 195.48 40.1302C195.8 40.1202 196.15 40.1102 196.57 40.1102C196.84 40.1102 197.11 40.1102 197.39 40.1102C197.66 40.1102 197.94 40.1102 198.21 40.1102C198.33 40.1102 198.45 40.1102 198.58 40.1102C200.11 40.1002 200.53 39.7202 200.53 38.3602C200.53 37.7002 200.53 36.8902 200.54 36.0002C200.56 32.7702 200.59 26.1902 200.5 23.7802H200.51Z" fill="#01A1B0"/>
<path d="M84.3697 23.7001C84.2897 21.4801 83.5297 19.6401 82.0497 18.0701C80.9697 16.9201 79.6797 15.9601 78.1897 15.3501H78.1697L77.9597 15.2701C77.7597 15.2001 77.5697 15.1301 77.3597 15.0701C76.2497 14.7401 75.1097 14.5801 73.9597 14.5801H73.7897C72.6397 14.5801 71.4897 14.7501 70.3897 15.0701C69.0097 15.4801 67.7197 16.1601 66.6297 17.0501C65.5397 16.1601 64.2497 15.4701 62.8697 15.0701C61.7697 14.7401 60.6197 14.5801 59.4697 14.5801H59.2997C58.1497 14.5801 57.0097 14.7401 55.8997 15.0701C55.6997 15.1301 55.4997 15.2001 55.2997 15.2701L55.0897 15.3501L55.0297 15.4001C53.5397 16.0101 52.2997 16.9301 51.2197 18.0801C49.7297 19.6501 48.9697 21.4901 48.8997 23.7101C48.8197 26.1301 48.8397 32.7301 48.8597 35.9601C48.8597 36.8501 48.8697 37.6601 48.8697 38.3201C48.8697 39.5801 49.2397 40.0001 50.5097 40.0701V40.0901H53.8097C53.8097 40.0901 53.8897 40.0901 53.9297 40.0901C53.9797 40.0901 54.0297 40.0901 54.0797 40.0901C54.5897 40.0901 54.9497 39.9701 55.1997 39.7301C55.4397 39.4901 55.5497 39.1401 55.5497 38.6401C55.5197 35.6601 55.5097 27.2201 55.5497 24.1301C55.5697 22.7001 56.0697 21.7201 57.1497 21.0701C57.7897 20.6801 58.4697 20.4601 59.1797 20.4201C59.2197 20.4201 59.2597 20.4201 59.2897 20.4201H59.5097C59.5097 20.4201 59.5897 20.4201 59.6197 20.4201C60.3297 20.4601 61.0097 20.6801 61.6497 21.0701C62.7197 21.7201 63.2297 22.6901 63.2497 24.1301C63.2897 27.2001 63.2797 35.6401 63.2497 38.6401C63.2497 39.1401 63.3597 39.4901 63.5997 39.7301C63.8397 39.9801 64.2097 40.0901 64.7197 40.0901C64.7697 40.0901 64.8197 40.0901 64.8697 40.0901C64.9197 40.0901 64.9797 40.0901 65.0297 40.0901H68.2797C68.3297 40.0901 68.3897 40.0901 68.4397 40.0901C68.4897 40.0901 68.5397 40.0901 68.5897 40.0901C69.0997 40.0901 69.4597 39.9701 69.7097 39.7301C69.9497 39.4901 70.0597 39.1401 70.0597 38.6401C70.0297 35.6401 70.0197 27.2001 70.0597 24.1301C70.0797 22.7001 70.5797 21.7201 71.6597 21.0701C72.2997 20.6801 72.9797 20.4601 73.6897 20.4201C73.7297 20.4201 73.7697 20.4201 73.7997 20.4201H74.0197C74.0197 20.4201 74.0997 20.4201 74.1297 20.4201C74.8397 20.4601 75.5197 20.6801 76.1597 21.0701C77.2297 21.7201 77.7397 22.6901 77.7597 24.1301C77.7997 27.2001 77.7897 35.6501 77.7597 38.6401C77.7597 39.1401 77.8697 39.4901 78.1097 39.7301C78.3497 39.9801 78.7197 40.0901 79.2297 40.0901C79.2797 40.0901 79.3297 40.0901 79.3797 40.0901C79.4197 40.0901 79.4597 40.0901 79.4997 40.0901H82.7597C84.0697 40.0201 84.4397 39.6001 84.4397 38.3301C84.4397 37.6701 84.4397 36.8601 84.4497 35.9701C84.4697 32.7301 84.4997 26.1401 84.4097 23.7101L84.3697 23.7001Z" fill="#01A1B0"/>
<path d="M110.05 27.6801C110.03 27.1901 110.01 25.7201 109.96 25.0501C109.82 22.9701 109.16 21.3301 108.64 20.3201C108.14 19.2801 107.45 18.3401 106.6 17.5201C104.61 15.5701 102.04 14.5801 98.9602 14.5801C96.7202 14.5801 94.6602 15.2401 92.8302 16.5501C91.7802 15.4101 89.9002 15.1201 88.4402 15.0801H88.0302C86.9902 15.1001 86.9102 15.8001 86.9102 16.0201V48.5401L86.9202 48.5901C87.1302 49.2801 87.6602 49.6601 88.4702 49.6901H91.3702C92.9402 49.6901 93.1002 48.3801 93.1002 48.3801V38.5101C94.8902 39.7401 96.8902 40.3401 99.0502 40.3601C101.29 40.3701 102.87 39.8201 102.87 39.8201L103.5 39.5601C104.3 39.2301 105.1 38.7501 105.88 38.1301L106.26 37.8301H106.25C109.48 35.0301 110.03 29.8601 110.06 27.7001L110.05 27.6801ZM94.6602 34.1301L94.5702 34.0701L94.4202 33.9601C94.4202 33.9601 94.3602 33.9201 94.3302 33.8901C94.3302 33.8901 94.2202 33.8101 94.2102 33.8001C94.0302 33.6501 93.8702 33.4701 93.7202 33.2801C93.6702 33.2201 93.6202 33.1401 93.5702 33.0601C93.5402 33.0101 93.5102 32.9601 93.4802 32.9001C93.4702 32.8801 93.4601 32.8601 93.4501 32.8301C93.3701 32.6701 93.2902 32.4801 93.2102 32.2801C92.9802 31.6201 92.8502 30.7801 92.8502 29.8601V24.5201C92.8502 22.4501 94.1502 20.7901 95.4802 20.1701C96.2502 19.7701 97.1502 19.5801 98.1902 19.5801C99.1602 19.5801 99.9902 19.7701 100.73 20.1701L100.96 20.2901C101.17 20.4201 101.51 20.6501 101.86 21.0101H101.88L101.93 21.0801C102.15 21.3101 102.34 21.5601 102.52 21.8401L102.59 21.9501C103.07 22.7201 103.64 25.0001 103.64 27.0201C103.64 27.1201 103.64 27.2201 103.64 27.3301C103.64 27.4001 103.64 27.4801 103.64 27.5601C103.64 27.5801 103.64 27.6101 103.64 27.6401C103.64 27.7501 103.64 27.8601 103.64 27.9801C103.57 30.2301 103.2 33.4001 101.22 34.3901C98.9402 35.5301 97.7301 35.2901 95.9501 34.7901C95.5001 34.6201 95.0901 34.4001 94.7001 34.1401L94.6602 34.1301Z" fill="#01A1B0"/>
<path d="M135.19 15.94C135.19 15.72 135.11 15.02 134.07 15H133.65C132.21 15.04 130.32 15.33 129.27 16.47C127.44 15.16 125.38 14.5 123.14 14.5C120.07 14.5 117.5 15.49 115.51 17.44C114.65 18.26 113.97 19.2 113.47 20.23C112.95 21.24 112.3 22.88 112.15 24.96C112.1 25.63 112.07 27.11 112.06 27.61C112.09 29.75 112.64 34.93 115.87 37.71H115.86L116.24 38.02C117.02 38.63 117.82 39.11 118.62 39.45L119.23 39.65C120.41 40.05 121.69 40.26 123.06 40.26C125.22 40.26 127.22 39.64 129.01 38.41V38.51C129.08 39.47 129.62 40.07 130.47 40.12H133.69H133.71C134.39 40.03 135.14 39.54 135.2 38.4V15.94H135.19ZM129.63 29.94C129.63 30 129.63 30.06 129.63 30.12C129.63 31.66 128.67 33.17 127.75 33.89C127.75 33.89 126.98 34.41 126.21 34.69C125.29 35.02 124.4 35.22 123.55 35.22C123.24 35.22 122.93 35.19 122.64 35.14C122.12 35.02 121.54 34.81 120.87 34.49C120.31 34.14 119.89 33.7 119.58 33.26C119.35 32.94 119.16 32.56 119 32.14C118.42 30.5 118.36 28.44 118.36 27.1C118.45 24.9 118.93 22.79 119.63 21.76C119.8 21.49 120 21.23 120.22 21L120.25 20.96L120.28 20.93C120.61 20.6 120.93 20.37 121.14 20.24L121.41 20.1C122.15 19.7 122.98 19.51 123.95 19.51C125.07 19.51 126.02 19.74 126.83 20.19C128.02 20.71 128.92 21.78 129.41 23.21C129.49 23.43 129.55 23.73 129.6 24.07C129.62 24.25 129.63 24.42 129.63 24.61V29.95V29.94Z" fill="#01A1B0"/>
<path d="M177.2 15.94C177.2 15.72 177.12 15.02 176.08 15H175.66C174.22 15.04 172.33 15.33 171.28 16.47C169.45 15.16 167.39 14.5 165.15 14.5C162.08 14.5 159.51 15.49 157.52 17.44C156.66 18.26 155.98 19.2 155.48 20.23C154.96 21.24 154.31 22.88 154.16 24.96C154.11 25.63 154.08 27.11 154.07 27.61C154.1 29.75 154.65 34.93 157.88 37.71H157.87L158.25 38.02C159.03 38.63 159.83 39.11 160.63 39.45L161.24 39.65C162.42 40.05 163.7 40.26 165.07 40.26C167.23 40.26 169.23 39.64 171.02 38.41V38.51C171.09 39.47 171.63 40.07 172.48 40.12H175.7H175.72C176.4 40.03 177.15 39.54 177.21 38.4V15.94H177.2ZM171.63 29.94C171.63 30 171.63 30.06 171.63 30.12C171.63 31.66 170.67 33.17 169.75 33.89C169.75 33.89 168.98 34.41 168.21 34.69C167.29 35.02 166.4 35.22 165.55 35.22C165.24 35.22 164.93 35.19 164.64 35.14C164.12 35.02 163.54 34.81 162.87 34.49C162.31 34.14 161.89 33.7 161.58 33.26C161.35 32.94 161.16 32.56 161 32.14C160.42 30.5 160.36 28.44 160.36 27.1C160.45 24.9 160.93 22.79 161.63 21.76C161.8 21.49 162 21.23 162.22 21L162.25 20.96L162.28 20.93C162.61 20.6 162.93 20.37 163.14 20.24L163.41 20.1C164.15 19.7 164.98 19.51 165.95 19.51C167.07 19.51 168.02 19.74 168.83 20.19C170.02 20.71 170.92 21.78 171.41 23.21C171.49 23.43 171.55 23.73 171.6 24.07C171.62 24.25 171.63 24.42 171.63 24.61V29.95V29.94Z" fill="#01A1B0"/>
<path d="M23.79 38.2C23.41 37.78 23.03 37.38 22.66 36.98C21.98 36.25 21.29 35.52 20.61 34.78C19.74 33.83 18.87 32.88 18.01 31.93L17.91 31.82C16.81 30.61 15.56 29.23 14.3 27.88C13.82 27.37 13.61 26.91 13.63 26.42C13.63 25.9 13.89 25.43 14.44 24.89C17.12 22.24 19.82 19.49 22.29 16.95H22.27C22.75 16.41 23.05 15.99 22.88 15.55C22.71 15.11 22.43 14.96 20.29 14.96C19.69 14.96 17.92 14.91 17.84 14.91C16.54 14.91 15.77 15.16 15.18 15.78C14.62 16.37 9.35 21.33 7.11 23.43L6.35 24.15V22.57C6.35 21.86 6.35 21.19 6.32 20.31C6.3 19.27 6.28 18.19 6.3 17.14H6.28V4.78C6.3 1.28 2.23 0.5 0.81 0.5C0.3 0.5 0.1 0.57 0.02 1.26V19.94C0 25.54 0 31.14 0 36.57V39.1C0.06 39.65 0.27 39.99 0.72 39.99H5.38C5.92 39.99 6.25 39.79 6.31 39.03C6.3 37.7 6.31 36.35 6.31 35.04C6.31 35.04 6.31 33.37 6.31 32.74V28.37L8.15 30.39C8.42 30.69 8.69 30.99 8.97 31.29L10.83 33.3C12.7 35.33 14.62 37.42 16.59 39.48C16.84 39.74 17.41 39.98 17.84 39.99C18.87 40.02 20 40.04 21.3 40.04C22.09 40.04 22.88 40.04 23.66 40.03L23.63 40.01C24.63 40.01 24.49 38.97 23.78 38.21L23.79 38.2Z" fill="#01A1B0"/>
</g>
<defs>
<clipPath id="clip0_4063_6769">
<rect width="201" height="49" fill="white" transform="translate(0 0.5)"/>
</clipPath>
</defs>
</svg>
